<?xml version="1.0" encoding="UTF-8" standalone="no"?>
<!-- Created with Inkscape (http://www.inkscape.org/) -->

<svg
   xmlns:dc="http://purl.org/dc/elements/1.1/"
   xmlns:cc="http://creativecommons.org/ns#"
   xmlns:rdf="http://www.w3.org/1999/02/22-rdf-syntax-ns#"
   xmlns:svg="http://www.w3.org/2000/svg"
   xmlns="http://www.w3.org/2000/svg"
   xmlns:sodipodi="http://sodipodi.sourceforge.net/DTD/sodipodi-0.dtd"
   xmlns:inkscape="http://www.inkscape.org/namespaces/inkscape"
   width="1026"
   height="352.00131"
   viewBox="0 0 1026 352.00131"
   id="svg2"
   version="1.1"
   inkscape:version="0.48.3.1 r9886"
   sodipodi:docname="header_fg.svg">
  <defs
     id="defs4" />
  <sodipodi:namedview
     id="base"
     pagecolor="#ffffff"
     bordercolor="#666666"
     borderopacity="1.0"
     inkscape:pageopacity="0.0"
     inkscape:pageshadow="2"
     inkscape:zoom="1"
     inkscape:cx="261.48202"
     inkscape:cy="5.3070702"
     inkscape:document-units="px"
     inkscape:current-layer="layer1"
     showgrid="false"
     objecttolerance="10000"
     inkscape:snap-path-clip="false"
     inkscape:snap-path-mask="false"
     inkscape:snap-perpendicular="true"
     inkscape:snap-tangential="true"
     inkscape:window-width="1680"
     inkscape:window-height="1016"
     inkscape:window-x="1680"
     inkscape:window-y="17"
     inkscape:window-maximized="1"
     showguides="false"
     fit-margin-top="0"
     fit-margin-left="0"
     fit-margin-right="0"
     fit-margin-bottom="0">
    <inkscape:grid
       type="xygrid"
       id="grid4136"
       units="mm"
       spacingx="3.5433071"
       spacingy="3.5433072"
       originx="-38.976378px"
       originy="-556.34976px"
       empspacing="5"
       visible="true"
       enabled="true"
       snapvisiblegridlinesonly="true" />
  </sodipodi:namedview>
  <metadata
     id="metadata7">
    <rdf:RDF>
      <cc:Work
         rdf:about="">
        <dc:format>image/svg+xml</dc:format>
        <dc:type
           rdf:resource="http://purl.org/dc/dcmitype/StillImage" />
        <dc:title></dc:title>
      </cc:Work>
    </rdf:RDF>
  </metadata>
  <g
     inkscape:label="Ebene 1"
     inkscape:groupmode="layer"
     id="layer1"
     transform="translate(-38.976378,-144.01113)">
    <path
       style="fill:#b3b3b3;fill-opacity:1;stroke:none"
       d="m 771.21875,0 -1.4375,0.0625 -0.875,41.1875 -1.15625,0 0,2.9375 1.0625,0 -0.4375,22.03125 -1.15625,0 -0.0312,3.71875 1.09375,0 -0.53125,29.59375 -1.25,0.09375 -0.0625,4.375 1.25,0.0625 0,14.65625 -3.0625,0.0625 -0.0625,23.78125 c -13.2756,6.1152 -16.0033,25.5001 1.375,32.59375 l -0.28125,5.21875 -1.4375,0 -0.0937,5.46875 1.40625,0 -3.6875,147.3125 -13.75,-0.0625 -0.21875,7.78125 35.5,-0.4375 11.4375,-0.71875 -0.1875,-6.625 -15,0.15625 -4.3125,-147.3125 1.6875,-0.0937 -0.0937,-5.5625 -1.53125,0 -0.25,-5.1875 c 16.94469,-6.4599 14.95077,-26.54315 1.375,-32.625 l 0.0625,-23.75 -2.90625,0 0.0625,-14.65625 1.1875,0 -0.0625,-4.4375 -1.125,0 -0.65625,-29.71875 1.0625,-0.03125 0,-3.6875 -1.21875,0 L 772.34375,44.125 773.5,44.09375 773.46875,41.1875 772.25,41.125 771.21875,0 z m 233.15625,197.9375 -0.1875,19.46875 -19.8125,0 c 0,0 -0.4845,-19.40625 -0.5625,-19.40625 l -2.03125,0 -0.34375,19.40625 -10.28125,0.46875 0,8.40625 2.78125,-0.125 0.0625,1.9375 -6.09375,0.28125 -0.28125,103.9375 53.0938,2.75 -0.2813,-107.25 -5.2187,0 0,-1.75 2.7187,-0.0625 0.062,-8.53125 -11.125,-0.0625 -0.4062,-19.46875 -2.0938,0 z m -713.1875,7.125 c 0,0 -16.34375,0.0187 -16.34375,0.21875 0,0.20001 -0.21875,2.8125 -0.21875,2.8125 l -18.59375,0.21875 -0.40625,131.625 52.15625,-0.0625 0,-71.125 -12.53125,0 0,-60.03125 -4.0625,-0.21875 0,-3.4375 z m -254.5625,6.125 -0.53125,35.03125 -28.375,0 0,94.09375 68.375,-0.125 -0.53125,-53.40625 -18.34375,-0.53125 0,-40.03125 -10.5625,0 0,-35.03125 -10.03125,0 z m 302.6875,13.90625 0,17.78125 -20.25,0 0,96.96875 88.28125,-0.125 0,-97.15625 -11.125,0 0,-17.46875 -56.90625,0 z m 574.46875,20.78125 0,1.59375 -1.5,0 0.0312,0.53125 1.5,0 0,2.59375 0.0312,0.8125 c -0.63376,0.1668 -0.64486,1.02974 0,1.21875 l -0.0312,0.9375 L 913.1562,254 c 0.16677,5.39251 -1.64329,7.6207 -2.34375,7.6875 l -0.0625,6.28125 c -0.55585,0.10008 -0.69054,0.59705 -0.3125,0.875 C 905.58981,268.94381 896.5,277.74594 896.5,283.75 l -0.21875,-0.40625 -0.4375,0.1875 -0.21875,0.78125 0.15625,0.84375 -0.5,0.96875 -0.3125,0.71875 -0.0937,1.09375 -0.3125,0.9375 0.21875,0.6875 -0.15625,1.125 -0.625,0.0312 0.53125,0.6875 -0.0312,0.84375 -0.65625,1.09375 -0.71875,0 0.0312,0.625 0.59375,0.3125 0.0312,2.71875 -1.71875,-0.0312 0,0.75 1.65625,1.25 -0.0312,0.53125 -0.78125,0.625 0,0.875 0.71875,1.09375 -0.125,7.8125 c 0,0 -1.40625,1.62305 -1.40625,1.65625 0,0.0445 0.65625,0.5625 0.65625,0.5625 l 0,2.875 -0.9375,0.21875 0.65625,0.59375 0.0312,3 -7.09375,0 -0.0312,-3.21875 0.5625,-0.5625 c 0,0 -0.68555,-0.125 -0.71875,-0.125 -0.0332,0 0,-8.65625 0,-8.65625 l 0.625,-0.40625 0.0625,-3 -0.96875,-0.0625 0,-2.84375 c -0.0334,-2.64623 -1.3338,-7.32681 -5.78125,-8.75 l -0.4063,-2.71875 c 0,0 1.93496,-2 -0.5,-2 -2.42386,0 -0.34375,2 -0.34375,2 l -0.5,2.71875 c -4.36961,1.60108 -5.7348,6.82285 -5.8125,8.96875 l 0,2.5625 -1.1875,0.0625 0.0625,3.0625 0.5625,0.34375 -0.0625,8.625 -0.6875,0.0625 0.40625,0.625 0,4.75 -0.40625,0 0.28125,1.5 -1,0 0,0.4375 1,0.5625 0,15.90625 10.53125,0.3125 55.03125,-8.3125 21.4375,1.125 0,-9.03125 0.96875,-0.5625 0,-0.4375 -0.96875,0 0.28125,-1.5 -0.4375,0 0,-4.75 0.4375,-0.625 -0.71875,-0.0625 -0.0625,-8.625 0.5625,-0.34375 0.0625,-3.0625 -1.1875,-0.0625 0,-2.5625 c -0.0667,-2.1459 -1.43178,-7.36767 -5.8125,-8.96875 l -0.5,-2.71875 c 0,0 2.09121,-2 -0.34375,-2 -2.43496,0 -0.5,2 -0.5,2 l -0.40625,2.71875 c -4.44743,1.42319 -5.74805,6.10377 -5.78125,8.75 l 0,2.84375 -0.96875,0.0625 0.0937,3 0.59375,0.40625 c 0,0 0.0332,8.65625 0,8.65625 -0.0334,0 -0.71875,0.125 -0.71875,0.125 l 0.5625,0.5625 -0.0312,3.21875 -7.09375,0 0.0312,-3 0.65625,-0.59375 -0.9375,-0.21875 0,-2.875 c 0,0 0.65625,-0.5179 0.65625,-0.5625 0,-0.0334 -1.40625,-1.65625 -1.40625,-1.65625 L 934.5,302.09375 935.1875,301 l 0,-0.875 -0.78125,-0.625 -0.0312,-0.53125 1.65625,-1.25 0,-0.75 -1.71875,0.0312 0.0312,-2.71875 0.59375,-0.3125 0.0312,-0.625 -0.71875,0 -0.65625,-1.09375 -0.0312,-0.84375 0.53125,-0.6875 -0.625,-0.0312 -0.15625,-1.125 0.21875,-0.6875 -0.3125,-0.9375 -0.0937,-1.09375 -0.3125,-0.71875 -0.5,-0.96875 0.15625,-0.84375 -0.21875,-0.78125 -0.4375,-0.1875 -0.21875,0.40625 c 0,-6.00406 -9.08978,-14.80621 -13.9375,-14.90625 0.37804,-0.27795 0.24343,-0.77497 -0.3125,-0.875 l -0.0625,-6.28125 c -0.70047,-0.0667 -2.51051,-2.29499 -2.34375,-7.6875 l -0.65625,-0.4375 -0.0312,-0.9375 c 0.67824,-0.18898 0.63376,-1.09649 0,-1.21875 l 0.0312,-0.8125 0,-2.59375 1.5,0 0.0312,-0.53125 -1.53125,0 0,-1.59375 -0.5,0 z m -98.1875,23.96875 c -0.44474,2.17923 -0.7164,1.81967 -0.75,2.53125 -0.0111,0.21125 -0.081,1.00926 -0.28125,1.6875 0.94509,-0.98955 0.58168,-1.13005 0.9375,-1.875 l 0,3.34375 -0.1875,3.375 -1.59375,0.0312 -2.46875,5.8125 -5.8125,0.125 0.28125,3.75 1.21875,2.375 0.15625,35.03125 -5.28125,-0.15625 0.0937,13.40625 29.59375,-1.84375 31.5625,0.96875 -0.0937,-10.3125 -37.53125,0.4375 -0.5625,-37.8125 0.84375,-2.5 0,-3.625 -5.84375,0 -2.5,-5.6875 -1.53125,0 -0.21875,-3.375 -0.0312,-5.6875 z m -597.375,3.0625 -8.46875,0.34375 -0.90625,1.375 0.0625,1.65625 -6.9375,0.5 -8.6875,18.5 0,3.75 c -5.35916,-2.29042 -23.07928,-2.73245 -28.09375,0.125 l 0,-2.21875 -10.34375,-15.90625 -5.125,0.40625 0,-2.625 -7.65625,0.125 0,3.125 -7.59375,0.71875 -0.125,24.9375 -10.96875,0.40625 0,-30.78125 -3.34375,-2.5 -8.34375,0.6875 0.15625,32.8125 -30.4375,0.6875 0.21875,31.15625 167.375,-0.25 -0.125,-33.25 -17.71875,0.0625 0,-31.28125 -12.875,0.46875 -0.0625,-3.03125 z M 602.6875,289.6875 c -0.0456,-0.007 -0.0805,0.0111 -0.125,0.0312 l 0.0312,13 -1.15625,0 c -0.15578,-0.71159 -0.85967,-0.68937 -0.9375,0 l -2.3125,0.0312 c -0.10003,-0.71159 -0.78393,-0.68934 -0.90625,0 l -1.3125,0 0.0312,0.90625 -0.53125,0.5 0,0.59375 -2.03125,-0.0312 1.28125,1.375 0.8125,0.0312 0.0312,5.09375 -1.0625,0.96875 0,0.625 -1.0625,-0.0312 1.0625,1.125 0.0625,2.71875 -1.34375,-0.5625 -0.65625,-1.53125 c 0.14452,-0.91174 -0.2174,-1.92396 -1.0625,-2.46875 -0.9562,1.11185 -0.38211,0.367 0.0625,2.96875 0.10003,0.95619 -1.03125,1.25 -1.03125,1.25 l 0,0.625 0.71875,0.75 -0.0312,1.4375 -1.28125,0 -0.0312,0.625 1.875,1.9375 1.25,0 0,1.15625 -0.9375,0.625 0,1.59375 0.9375,0.78125 0.0937,13.78125 0.90625,0 19.34375,1.6875 97.5,0.0625 31.25,-0.40625 -0.125,-15.125 0.9375,-0.78125 0,-1.59375 -0.9375,-0.625 0,-1.15625 1.21875,0 1.90625,-1.9375 -0.0312,-0.625 -1.3125,0 0,-1.4375 0.6875,-0.75 0,-0.625 c 0,0 -1.1313,-0.29381 -1.03125,-1.25 0.44475,-2.60175 1.03878,-1.8569 0.0937,-2.96875 -0.85613,0.54479 -1.20703,1.55701 -1.0625,2.46875 l -0.6875,1.53125 -1.3125,0.5625 0.0625,-2.71875 1.0625,-1.125 -1.09375,0.0312 0,-0.625 -1.03125,-0.96875 0.0312,-5.09375 0.8125,-0.0312 1.25,-1.375 -2,0.0312 0,-0.59375 -0.53125,-0.5 0,-0.90625 -1.28125,0 c -0.12225,-0.68934 -0.83744,-0.71159 -0.9375,0 l -2.3125,-0.0312 c -0.0777,-0.68937 -0.75059,-0.71159 -0.90625,0 l -1.15625,0 0,-7.34375 c 1.16746,-0.34468 0.96832,0.83803 2.625,1.09375 -0.97844,-0.8339 -0.2731,-1.15406 -1.0625,-2.34375 -2.11253,-2.00134 -1.24182,-4.62861 -2.03125,-4.40625 l -0.28125,12.96875 -1.125,0.0312 c -0.26677,-0.84501 -0.74577,-0.57677 -0.8125,-0.0312 l -2.25,0 c -0.25579,-0.57815 -0.65263,-0.61288 -0.875,0.0312 l -1.375,0 0,0.96875 -0.5625,0.4375 0,0.625 -2,0 c 0.0555,0 1.21875,1.4375 1.21875,1.4375 l 0.71875,0.0312 0,4.9375 -1.15625,1 0,0.65625 -1.09375,0 1.09375,1.125 0,2.59375 -6.5,-0.0625 c -0.52258,-0.2 -0.55709,-2.37137 -0.3125,-2.59375 -0.10003,-0.58931 -0.96454,-0.57956 -1.03125,0.0312 0.26677,0.20028 0.20997,2.30678 -0.3125,2.5625 L 709.875,316.5 c -0.48923,-0.20028 -0.51906,-2.3957 -0.21875,-2.5625 -0.10004,-0.56705 -0.87137,-0.66516 -1.09375,-0.0312 0.3002,0.22226 0.18581,2.37139 -0.28125,2.59375 l -5.5625,0 c -0.52257,-0.22225 -0.62591,-2.30257 -0.28125,-2.625 -0.16677,-0.58931 -0.87139,-0.58931 -1.09375,0 0.3002,0.22227 0.23012,2.22475 -0.28125,2.625 l -5.59375,0 c -0.51144,-0.24452 -0.66618,-2.37139 -0.34375,-2.59375 -0.12225,-0.51145 -0.9312,-0.5337 -1.03125,0 0.24452,0.44474 0.0142,2.39361 -0.375,2.59375 l -5.15625,0 0,-4 0.78125,0 0.78125,-0.90625 -1.34375,0 -0.46875,-0.46875 0,-1.0625 -0.875,-0.1875 -0.0312,-1 0.5,0 0.5625,-0.53125 -0.875,0 -0.0312,-0.78125 -0.375,-0.625 0.3125,-0.6875 -0.75,-0.0312 0.46875,-3.71875 0.78125,-1.1875 -1.125,0 0,-0.53125 -0.65625,-0.34375 0.28125,-1.59375 -0.71875,-0.25 -0.25,-0.71875 -0.375,0 -0.28125,0.71875 -0.8125,0.25 0.34375,1.65625 -0.65625,0.25 -0.0312,0.53125 -1.0625,0 0.8125,1.21875 0.375,3.6875 -0.84375,0.0312 0.28125,0.6875 -0.40625,0.53125 0,0.84375 c -1.55659,-6.68227 -5.51493,-13.32152 -15.34375,-13.34375 -9.81771,-0.0215 -13.81839,6.66148 -15.375,13.34375 l -0.0312,-0.84375 -0.40625,-0.53125 0.28125,-0.6875 -0.8125,-0.0312 0.375,-3.6875 0.78125,-1.21875 -1.0625,0 0,-0.53125 -0.65625,-0.25 0.34375,-1.65625 -0.84375,-0.25 -0.25,-0.71875 -0.375,0 -0.25,0.71875 -0.71875,0.25 0.28125,1.59375 -0.65625,0.34375 0,0.53125 -1.125,0 0.78125,1.1875 0.46875,3.71875 -0.78125,0.0312 0.34375,0.6875 -0.375,0.625 -0.0312,0.78125 -0.90625,0 0.59375,0.53125 0.5,0 -0.0312,1 -0.90625,0.1875 0,1.0625 -0.4375,0.46875 -1.34375,0 0.78125,0.90625 0.78125,0 0,4 -5.15625,0 c -0.38916,-0.20027 -0.65085,-2.14901 -0.40625,-2.59375 -0.10004,-0.5337 -0.87769,-0.51145 -1,0 0.32245,0.22226 0.16768,2.34913 -0.34375,2.59375 l -5.59375,0 c -0.51145,-0.40025 -0.58145,-2.40262 -0.28125,-2.625 -0.22227,-0.58931 -0.92696,-0.58931 -1.09375,0 0.34469,0.32243 0.24122,2.40264 -0.28125,2.625 l -5.59375,0 c -0.46697,-0.22225 -0.55025,-2.37139 -0.25,-2.59375 -0.22227,-0.63377 -0.9937,-0.53565 -1.09375,0.0312 0.3002,0.16677 0.27028,2.36235 -0.21875,2.5625 l -5.4375,-0.0312 c -0.52255,-0.25577 -0.57935,-2.36235 -0.3125,-2.5625 -0.0668,-0.61154 -0.93117,-0.62129 -1.03125,-0.0312 0.24451,0.22227 0.20993,2.39364 -0.3125,2.59375 l -6.5,0.0625 -0.0312,-2.59375 1.125,-1.125 -1.125,0 0,-0.65625 -1.125,-1 0,-4.9375 0.71875,-0.0312 c 0,0 1.16318,-1.4375 1.21875,-1.4375 l -2,0 0,-0.625 -0.5625,-0.4375 0,-0.96875 -1.375,0 c -0.22225,-0.64486 -0.6505,-0.61013 -0.90625,-0.0312 l -2.21875,0 c -0.0668,-0.54481 -0.57689,-0.81303 -0.84375,0.0312 l -1.09375,-0.0312 -0.125,-7.78125 c 0.4114,-0.20027 3.01078,2.26805 3.5,2.3125 -0.12227,-1.20079 -0.97237,-2.5856 -0.75,-3.375 -1.78243,-1.0528 -2.59756,-4.05259 -3.28125,-4.15625 z"
       transform="translate(38.976378,144.01113)"
       id="path3756"
       inkscape:connector-curvature="0" />
  </g>
</svg>
