<?xml version="1.0" encoding="UTF-8" standalone="no"?>
<!-- Created with Inkscape (http://www.inkscape.org/) -->

<svg
   xmlns:dc="http://purl.org/dc/elements/1.1/"
   xmlns:cc="http://creativecommons.org/ns#"
   xmlns:rdf="http://www.w3.org/1999/02/22-rdf-syntax-ns#"
   xmlns:svg="http://www.w3.org/2000/svg"
   xmlns="http://www.w3.org/2000/svg"
   xmlns:sodipodi="http://sodipodi.sourceforge.net/DTD/sodipodi-0.dtd"
   xmlns:inkscape="http://www.inkscape.org/namespaces/inkscape"
   width="270.93332mm"
   height="249.96021mm"
   viewBox="0 0 959.99995 885.68577"
   id="svg2"
   version="1.1"
   inkscape:version="0.91 r13725"
   sodipodi:docname="ZaPFLogo Berlin Webdesign Dark.svg">
  <defs
     id="defs4" />
  <sodipodi:namedview
     id="base"
     pagecolor="#ffffff"
     bordercolor="#666666"
     borderopacity="1.0"
     inkscape:pageopacity="0.0"
     inkscape:pageshadow="2"
     inkscape:zoom="1"
     inkscape:cx="472.87676"
     inkscape:cy="424.86525"
     inkscape:document-units="px"
     inkscape:current-layer="layer1"
     showgrid="false"
     objecttolerance="10000"
     inkscape:snap-path-clip="false"
     inkscape:snap-path-mask="false"
     inkscape:snap-perpendicular="true"
     inkscape:snap-tangential="true"
     inkscape:window-width="1280"
     inkscape:window-height="960"
     inkscape:window-x="0"
     inkscape:window-y="27"
     inkscape:window-maximized="1"
     showguides="false"
     fit-margin-top="0"
     fit-margin-left="0"
     fit-margin-right="0"
     fit-margin-bottom="0">
    <inkscape:grid
       type="xygrid"
       id="grid4136"
       units="mm"
       spacingx="3.5433071"
       spacingy="3.5433072"
       originx="-38.976378"
       originy="0.00026719743" />
  </sodipodi:namedview>
  <metadata
     id="metadata7">
    <rdf:RDF>
      <cc:Work
         rdf:about="">
        <dc:format>image/svg+xml</dc:format>
        <dc:type
           rdf:resource="http://purl.org/dc/dcmitype/StillImage" />
        <dc:title></dc:title>
      </cc:Work>
    </rdf:RDF>
  </metadata>
  <g
     inkscape:label="Ebene 1"
     inkscape:groupmode="layer"
     id="layer1"
     transform="translate(-38.976378,-166.6767)">
    <g
       id="g4943"
       transform="matrix(2.508642,0,0,2.508642,-58.801401,-1587.6383)">
      <g
         style="fill:#b3b3b3"
         id="g4612">
        <path
           style="fill:#b3b3b3;fill-opacity:1;stroke:none"
           d="m 338.08708,827.79932 c 0,0 -0.0498,-6.94623 -0.0498,-6.94623 0,0 1.96982,0.0539 1.96982,0.0539 0,0 -0.0539,-13.06306 -0.0539,-13.06306 0,0 -0.46446,-0.88331 -0.46446,-0.88331 0,0 -0.10368,-1.39754 -0.10368,-1.39754 0,0 2.17718,-0.0539 2.17718,-0.0539 0,0 0.91649,-2.16474 0.91649,-2.16474 0,0 0.59717,-0.0124 0.59717,-0.0124 0,0 0.0705,-1.26069 0.0705,-1.26069 0,0 -0.004,-1.2441 -0.004,-1.2441 -0.13271,0.27785 0,0.33591 -0.3525,0.70499 0.0747,-0.25297 0.10368,-0.55155 0.10782,-0.63034 0.0125,-0.26541 0.10783,-0.13271 0.27371,-0.94552 0,0 0.0166,2.11497 0.0166,2.11497 0,0 0.0829,1.26069 0.0829,1.26069 0,0 0.57229,0 0.57229,0 0,0 0.93308,2.12741 0.93308,2.12741 0,0 2.17717,0 2.17717,0 0,0 0,1.34778 0,1.34778 0,0 -0.31102,0.93307 -0.31102,0.93307 0,0 0.20735,14.09982 0.20735,14.09982 0,0 13.99614,-0.15759 13.99614,-0.15759 0,0 0.0498,6.11683 0.0498,6.11683"
           id="path3774"
           inkscape:connector-curvature="0" />
        <path
           style="fill:#b3b3b3;fill-opacity:1;stroke:none"
           d="m 41.859799,828.2557 c 0,0 0,-37.11568 0,-37.11568 0,0 10.57486,0 10.57486,0 0,0 0.20735,-13.06306 0.20735,-13.06306 0,0 3.732303,0 3.732303,0 0,0 0,13.06306 0,13.06306 0,0 3.939654,0 3.939654,0 0,0 0,14.92921 0,14.92921 0,0 6.842556,0.20735 6.842556,0.20735 0,0 0.20735,21.35707 0.20735,21.35707"
           id="path3772"
           inkscape:connector-curvature="0" />
        <path
           style="fill:#b3b3b3;fill-opacity:1;stroke:none"
           d="m 157.97591,827.0116 c 0,0 0,-37.11568 0,-37.11568 0,0 7.55998,0 7.55998,0 0,0 0,-6.63521 0,-6.63521 0,0 21.22437,0 21.22437,0 0,0 0,6.52324 0,6.52324 0,0 4.147,0 4.147,0 0,0 0,37.47233 0,37.47233"
           id="path3770"
           inkscape:connector-curvature="0" />
        <path
           style="fill:#b3b3b3;fill-opacity:1;stroke:none"
           d="m 153.77084,827.21895 c 0,0 0,-27.67295 0,-27.67295 0,0 -4.67367,0 -4.67367,0 0,0 0,-22.39382 0,-22.39382 0,0 -1.50951,-0.0747 -1.50951,-0.0747 0,0 0,-1.28142 0,-1.28142 0,0 -6.10439,0 -6.10439,0.0746 0,0.0746 -0.0746,1.05749 -0.0746,1.05749 0,0 -6.93793,0.0746 -6.93793,0.0746 0,0 -0.15344,50.06678 -0.15344,50.06678"
           id="path3768"
           inkscape:connector-curvature="0" />
        <path
           style="fill:#b3b3b3;fill-opacity:1;stroke:none"
           d="m 363.67422,826.73382 c 0,0 0,-7.0499 0,-7.0499 0,0 -0.36494,-0.20735 -0.36494,-0.20735 0,0 0,-0.15759 0,-0.15759 0,0 0.36494,0 0.36494,0 0,0 -0.10368,-0.56814 -0.10368,-0.56814 0,0 0.15344,0 0.15344,0 0,0 0,-1.76247 0,-1.76247 0,0 -0.15344,-0.23638 -0.15344,-0.23638 0,0 0.25712,-0.0249 0.25712,-0.0249 0,0 0.0249,-3.21392 0.0249,-3.21392 0,0 -0.20735,-0.12856 -0.20735,-0.12856 0,0 -0.0249,-1.14043 -0.0249,-1.14043 0,0 0.43958,-0.0249 0.43958,-0.0249 0,0 0,-0.9621 0,-0.9621 0.029,-0.80038 0.5474,-2.74532 2.17718,-3.34249 0,0 0.18246,-1.01187 0.18246,-1.01187 0,0 -0.77549,-0.75061 0.12856,-0.75061 0.90819,0 0.18247,0.75061 0.18247,0.75061 0,0 0.15758,1.01187 0.15758,1.01187 1.65881,0.53082 2.13571,2.28085 2.14815,3.26784 0,0 0,1.06163 0,1.06163 0,0 0.36494,0.0249 0.36494,0.0249 0,0 -0.0249,1.11554 -0.0249,1.11554 0,0 -0.23638,0.15344 -0.23638,0.15344 0,0 -0.0124,3.22637 0,3.22637 0.0124,0 0.2737,0.0415 0.2737,0.0415 0,0 -0.20735,0.20735 -0.20735,0.20735 0,0 0.0124,1.20263 0.0124,1.20263 0,0 2.64579,0 2.64579,0 0,0 -0.0166,-1.1114 -0.0166,-1.1114 0,0 -0.24467,-0.21979 -0.24467,-0.21979 0,0 0.34835,-0.0912 0.34835,-0.0912 0,0 0,-1.06578 0,-1.06578 0,0 -0.24468,-0.19077 -0.24468,-0.20735 0,-0.0124 0.53082,-0.62205 0.53082,-0.62205 0,0 0.0415,-2.91535 0.0415,-2.91535 0,0 -0.26126,-0.40226 -0.26126,-0.40226 0,0 0,-0.3359 0,-0.3359 0,0 0.28614,-0.23224 0.28614,-0.23224 0,0 0.0124,-0.19491 0.0124,-0.19491 0,0 -0.62205,-0.46446 -0.62205,-0.46446 0,0 0,-0.28614 0,-0.28614 0,0 0.64693,0.0124 0.64693,0.0124 0,0 -0.0124,-1.01187 -0.0124,-1.01187 0,0 -0.21979,-0.11612 -0.21979,-0.11612 0,0 -0.0124,-0.23223 -0.0124,-0.23223 0,0 0.26956,0 0.26956,0 0,0 0.23638,-0.40226 0.23638,-0.40226 0,0 0.0124,-0.32347 0.0124,-0.32347 0,0 -0.19491,-0.24882 -0.19491,-0.24882 0,0 0.23223,-0.0124 0.23223,-0.0124 0,0 0.0539,-0.42714 0.0539,-0.42714 0,0 -0.0788,-0.25711 -0.0788,-0.25711 0,0 0.11611,-0.34006 0.11611,-0.34006 0,0 0.0373,-0.4147 0.0373,-0.4147 0,0 0.12026,-0.26955 0.12026,-0.26955 0,0 0.17832,-0.3525 0.17832,-0.3525 0,0 -0.0498,-0.32346 -0.0498,-0.32346 0,0 0.0788,-0.282 0.0788,-0.282 0,0 0.16588,-0.0788 0.16588,-0.0788 0,0 0.0788,0.15344 0.0788,0.15344 0,-2.23939 3.38811,-5.51967 5.1962,-5.55699 -0.141,-0.10367 -0.0912,-0.28614 0.11612,-0.32347 0,0 0.0249,-2.3472 0.0249,-2.3472 0.26126,-0.0249 0.93307,-0.85428 0.87087,-2.86558 0,0 0.24467,-0.16588 0.24467,-0.16588 0,0 0.0124,-0.3525 0.0124,-0.3525 -0.24052,-0.0705 -0.23638,-0.38981 0,-0.45202 0,0 -0.008,-0.30688 -0.008,-0.30688 0,0 -0.004,-0.9621 -0.004,-0.9621 0,0 -0.5557,0 -0.5557,0 0,0 -0.0124,-0.19491 -0.0124,-0.19491 0,0 0.56399,0 0.56399,0 0,0 -0.004,-0.59302 -0.004,-0.59302 0,0 0.18661,0 0.18661,0 0,0 0,0.59302 0,0.59302 0,0 0.57229,0 0.57229,0 0,0 -0.0124,0.19491 -0.0124,0.19491 0,0 -0.5557,0 -0.5557,0 0,0 -0.004,0.96625 -0.004,0.96625 0,0 -0.008,0.30273 -0.008,0.30273 0.23638,0.0456 0.25297,0.38153 0,0.45202 0,0 0.0124,0.3525 0.0124,0.3525 0,0 0.24467,0.16588 0.24467,0.16588 -0.0622,2.0113 0.60961,2.8407 0.87087,2.86558 0,0 0.0249,2.3472 0.0249,2.3472 0.20735,0.0373 0.25711,0.2198 0.11611,0.32347 1.8081,0.0373 5.1962,3.3176 5.1962,5.55699 0,0 0.0788,-0.15344 0.0788,-0.15344 0,0 0.17003,0.0788 0.17003,0.0788 0,0 0.0746,0.282 0.0746,0.282 0,0 -0.0498,0.32346 -0.0498,0.32346 0,0 0.18247,0.3525 0.18247,0.3525 0,0 0.11611,0.26955 0.11611,0.26955 0,0 0.0373,0.4147 0.0373,0.4147 0,0 0.11611,0.34006 0.11611,0.34006 0,0 -0.0788,0.25711 -0.0788,0.25711 0,0 0.0539,0.42714 0.0539,0.42714 0,0 0.23223,0.0124 0.23223,0.0124 0,0 -0.19491,0.24882 -0.19491,0.24882 0,0 0.0125,0.32347 0.0125,0.32347 0,0 0.23637,0.40226 0.23637,0.40226 0,0 0.26956,0 0.26956,0 0,0 -0.0124,0.23223 -0.0124,0.23223 0,0 -0.21979,0.11612 -0.21979,0.11612 0,0 -0.0124,1.01187 -0.0124,1.01187 0,0 0.64693,-0.0124 0.64693,-0.0124 0,0 0,0.28614 0,0.28614 0,0 -0.62205,0.46446 -0.62205,0.46446 0,0 0.0124,0.19491 0.0124,0.19491 0,0 0.28614,0.23224 0.28614,0.23224 0,0 0,0.3359 0,0.3359 0,0 -0.25711,0.40226 -0.25711,0.40226 0,0 0.0373,2.91535 0.0373,2.91535 0,0 0.53082,0.60961 0.53082,0.62205 0,0.0166 -0.24467,0.20735 -0.24467,0.20735 0,0 0,1.06578 0,1.06578 0,0 0.34834,0.0912 0.34834,0.0912 0,0 -0.24467,0.21979 -0.24467,0.21979 0,0 -0.0124,1.1114 -0.0124,1.1114 0,0 2.64164,0 2.64164,0 0,0 0.0124,-1.20263 0.0124,-1.20263 0,0 -0.20735,-0.20735 -0.20735,-0.20735 0,0 0.26126,-0.0415 0.2737,-0.0415 0.0124,0 0,-3.22637 0,-3.22637 0,0 -0.23223,-0.15344 -0.23223,-0.15344 0,0 -0.029,-1.11554 -0.029,-1.11554 0,0 0.36494,-0.0249 0.36494,-0.0249 0,0 0,-1.06163 0,-1.06163 0.0124,-0.98699 0.49349,-2.73702 2.15229,-3.26784 0,0 0.15344,-1.01187 0.15344,-1.01187 0,0 -0.72572,-0.75061 0.18247,-0.75061 0.90819,0 0.12856,0.75061 0.12856,0.75061 0,0 0.18247,1.01187 0.18247,1.01187 1.63392,0.59717 2.15229,2.54211 2.17717,3.34249 0,0 0,0.9621 0,0.9621 0,0 0.43959,0.0249 0.43959,0.0249 0,0 -0.0249,1.14043 -0.0249,1.14043 0,0 -0.20735,0.12856 -0.20735,0.12856 0,0 0.0249,3.21392 0.0249,3.21392 0,0 0.26126,0.0249 0.26126,0.0249 0,0 -0.15759,0.23638 -0.15759,0.23638 0,0 0,1.76247 0,1.76247 0,0 0.15759,0 0.15759,0 0,0 -0.10368,0.56814 -0.10368,0.56814 0,0 0.36079,0 0.36079,0 0,0 0,0.15759 0,0.15759 0,0 -0.36079,0.20735 -0.36079,0.20735 0,0 0,7.0499 0,7.0499"
           id="path3766"
           inkscape:connector-curvature="0" />
        <path
           style="fill:#b3b3b3;fill-opacity:1;stroke:none"
           d="m 131.84978,827.11528 c 0,0 -0.0498,-13.42385 -0.0498,-13.42385 0,0 -6.61033,0.0249 -6.61033,0.0249 0,0 0,-11.66552 0,-11.66552 0,0 -4.79393,0.18247 -4.79393,0.18247 0,0 -0.029,-1.14043 -0.029,-1.14043 0,0 -3.16002,0.12856 -3.16002,0.12856 0,0 -0.33591,0.51837 -0.33591,0.51837 0,0 0.0249,0.62205 0.0249,0.62205 0,0 -2.59188,0.18247 -2.59188,0.18247 0,0 -3.23881,6.89647 -3.23881,6.89647 0,0 0,1.39754 0,1.39754 -1.99886,-0.85428 -8.60089,-1.01187 -10.47119,0.0539 0,0 0,-0.8294 0,-0.8294 0,0 -3.865004,-5.93851 -3.865004,-5.93851 0,0 -1.915916,0.15759 -1.915916,0.15759 0,0 0,-0.98699 0,-0.98699 0,0 -2.853138,0.0539 -2.853138,0.0539 0,0 0,1.16531 0,1.16531 0,0 -2.82411,0.26126 -2.82411,0.26126 0,0 -0.04976,9.30173 -0.04976,9.30173 0,0 -4.09724,0.15758 -4.09724,0.15758 0,0 0,-11.48305 0,-11.48305 0,0 -1.244101,-0.93307 -1.244101,-0.93307 0,0 -3.110253,0.26126 -3.110253,0.26126 0,0 0.05391,12.23366 0.05391,12.23366 0,0 -11.354496,0.25711 -11.354496,0.25711 0,0 0.103675,13.06306 0.103675,13.06306"
           id="path3764"
           inkscape:connector-curvature="0" />
        <path
           style="fill:#b3b3b3;fill-opacity:1;stroke:none"
           d="m 315.78267,827.77319 c 0,0 -0.0539,-6.94623 -0.0539,-6.94623 0,0 0.34835,-0.28614 0.34835,-0.28614 0,0 0,-0.59302 0,-0.59302 0,0 -0.34835,-0.23638 -0.34835,-0.23638 0,0 0,-0.42714 0,-0.42714 0,0 0.45617,-0.004 0.45617,-0.004 0,0 0.70914,-0.72158 0.70914,-0.72158 0,0 -0.0124,-0.23223 -0.0124,-0.23223 0,0 -0.4852,-0.004 -0.4852,-0.004 0,0 -0.004,-0.53496 -0.004,-0.53496 0,0 0.26126,-0.27371 0.26126,-0.27371 0,0 0,-0.24052 0,-0.24052 0,0 -0.42299,-0.10368 -0.38567,-0.46032 0.16588,-0.9704 0.38567,-0.70084 0.0332,-1.11554 -0.31932,0.2032 -0.45617,0.58887 -0.40226,0.92893 0,0 -0.24882,0.57228 -0.24882,0.57228 0,0 -0.48935,0.20735 -0.48935,0.20735 0,0 0.0207,-1.02016 0.0207,-1.02016 0,0 0.39397,-0.4147 0.39397,-0.4147 0,0 -0.40226,0.0124 -0.40226,0.0124 0,0 0,-0.24053 0,-0.24053 0,0 -0.38982,-0.35249 -0.38982,-0.35249 0,0 0.008,-1.90762 0.008,-1.90762 0,0 0.30687,-0.008 0.30687,-0.008 0,0 0.46862,-0.51423 0.46862,-0.51423 0,0 -0.74646,0.008 -0.74646,0.008 0,0 0,-0.21979 0,-0.21979 0,0 -0.20321,-0.17832 -0.20321,-0.17832 0,0 0.008,-0.34006 0.008,-0.34006 0,0 -0.4852,0 -0.4852,0 -0.0456,-0.25711 -0.30688,-0.26541 -0.3442,0 0,0 -0.86258,-0.008 -0.86258,-0.008 -0.029,-0.25712 -0.28614,-0.26541 -0.3442,0 0,0 -0.43129,-0.008 -0.43129,-0.008 0,0 0.008,-2.73702 0.008,-2.73702 0.43544,-0.12856 0.36079,0.31103 0.9787,0.40641 -0.36494,-0.31103 -0.10783,-0.42714 -0.40226,-0.87087 -0.78793,-0.74646 -0.46447,-1.7293 -0.75891,-1.64636 0,0 -0.10367,4.83955 -0.10367,4.83955 0,0 -0.4147,0.008 -0.4147,0.008 -0.0995,-0.31517 -0.28614,-0.21149 -0.31103,-0.008 0,0 -0.8294,0 -0.8294,0 -0.0954,-0.21564 -0.24882,-0.23223 -0.33176,0.008 0,0 -0.51837,0 -0.51837,0 0,0 0,0.36909 0,0.36909 0,0 -0.20321,0.15344 -0.20321,0.15344 0,0 0,0.24052 0,0.24052 0,0 -0.75475,0 -0.74646,0 0.0207,0 0.45203,0.53497 0.45203,0.53497 0,0 0.26955,0.008 0.26955,0.008 0,0 0,1.84542 0,1.84542 0,0 -0.42714,0.36908 -0.42714,0.36908 0,0 0,0.24882 0,0.24882 0,0 -0.4147,0 -0.4147,0 0,0 0.4147,0.4147 0.4147,0.4147 0,0 -0.008,0.96625 -0.008,0.96625 0,0 -2.42185,-0.0166 -2.42185,-0.0166 -0.19491,-0.0746 -0.2115,-0.88745 -0.12027,-0.97039 -0.0373,-0.2198 -0.35249,-0.2198 -0.37737,0.008 0.0995,0.0747 0.0746,0.86672 -0.12027,0.9621 0,0 -2.02788,0.008 -2.02788,0.008 -0.18247,-0.0747 -0.19491,-0.89575 -0.0829,-0.95796 -0.0373,-0.2115 -0.32347,-0.24882 -0.40641,-0.0124 0.11197,0.0829 0.0747,0.88746 -0.0995,0.9704 0,0 -2.08179,0 -2.08179,0 -0.19491,-0.0829 -0.23223,-0.85843 -0.10368,-0.97869 -0.0622,-0.2198 -0.32346,-0.2198 -0.4064,0 0.11197,0.0829 0.0829,0.8294 -0.10783,0.97869 0,0 -2.08594,0 -2.08594,0 -0.19076,-0.0912 -0.24882,-0.88746 -0.12856,-0.9704 -0.0456,-0.19076 -0.34005,-0.19906 -0.37737,0 0.0912,0.16588 0,0.89575 -0.14515,0.9704 0,0 -1.92006,0 -1.92006,0 0,0 -0.004,-1.49292 -0.004,-1.49292 0,0 0.29029,0 0.29029,0 0,0 0.29444,-0.33176 0.29444,-0.33176 0,0 -0.50594,-0.008 -0.50594,-0.008 0,0 -0.16588,-0.16588 -0.16588,-0.16588 0,0 0,-0.39811 0,-0.39811 0,0 -0.33176,-0.0747 -0.33176,-0.0747 0,0 -0.008,-0.36908 -0.008,-0.36908 0,0 0.18247,0 0.18247,0 0,0 0.21564,-0.2032 0.21564,-0.2032 0,0 -0.33176,0 -0.33176,0 0,0 -0.0124,-0.29444 -0.0124,-0.29444 0,0 -0.13685,-0.22808 -0.13685,-0.22808 0,0 0.12026,-0.25712 0.12026,-0.25712 0,0 -0.28614,-0.0124 -0.28614,-0.0124 0,0 0.17417,-1.38095 0.17417,-1.38095 0,0 0.29444,-0.44373 0.29444,-0.44373 0,0 -0.42299,-0.008 -0.42299,-0.008 0,0 0,-0.1949 0,-0.1949 0,0 -0.24053,-0.12856 -0.24053,-0.12856 0,0 0.10368,-0.59717 0.10368,-0.59717 0,0 -0.26956,-0.0829 -0.26956,-0.0829 0,0 -0.0912,-0.26956 -0.0912,-0.26956 0,0 -0.14515,0 -0.14515,0 0,0 -0.0954,0.26956 -0.0954,0.26956 0,0 -0.31102,0.0829 -0.31102,0.0829 0,0 0.12855,0.6179 0.12855,0.6179 0,0 -0.24052,0.0995 -0.24052,0.0995 0,0 -0.008,0.19491 -0.008,0.19491 0,0 -0.39811,0 -0.39811,0 0,0 0.29444,0.46032 0.29444,0.46032 0,0 0.141,1.37266 0.141,1.37266 0,0 -0.30688,0.008 -0.30688,0.008 0,0 0.10367,0.26126 0.10367,0.26126 0,0 -0.14929,0.19906 -0.14929,0.19906 0,0 -0.008,0.31517 -0.008,0.31517 -0.58058,-2.49235 -2.05277,-4.96811 -5.71872,-4.9764 -3.66181,-0.008 -5.15473,2.48405 -5.73531,4.9764 0,0 -0.008,-0.31517 -0.008,-0.31517 0,0 -0.14929,-0.19906 -0.14929,-0.19906 0,0 0.10367,-0.26126 0.10367,-0.26126 0,0 -0.30688,-0.008 -0.30688,-0.008 0,0 0.141,-1.37266 0.141,-1.37266 0,0 0.29444,-0.46032 0.29444,-0.46032 0,0 -0.39811,0 -0.39811,0 0,0 -0.008,-0.19491 -0.008,-0.19491 0,0 -0.24053,-0.0995 -0.24053,-0.0995 0,0 0.12856,-0.6179 0.12856,-0.6179 0,0 -0.31102,-0.0829 -0.31102,-0.0829 0,0 -0.0954,-0.26956 -0.0954,-0.26956 0,0 -0.14515,0 -0.14515,0 0,0 -0.0912,0.26956 -0.0912,0.26956 0,0 -0.26956,0.0829 -0.26956,0.0829 0,0 0.10368,0.59717 0.10368,0.59717 0,0 -0.24053,0.12856 -0.24053,0.12856 0,0 0,0.1949 0,0.1949 0,0 -0.42299,0.008 -0.42299,0.008 0,0 0.29443,0.44373 0.29443,0.44373 0,0 0.17418,1.38095 0.17418,1.38095 0,0 -0.28615,0.0124 -0.28615,0.0124 0,0 0.12027,0.25712 0.12027,0.25712 0,0 -0.13685,0.22808 -0.13685,0.22808 0,0 -0.0125,0.29444 -0.0125,0.29444 0,0 -0.33176,0 -0.33176,0 0,0 0.21565,0.2032 0.21565,0.2032 0,0 0.18247,0 0.18247,0 0,0 -0.008,0.36908 -0.008,0.36908 0,0 -0.33176,0.0747 -0.33176,0.0747 0,0 0,0.39811 0,0.39811 0,0 -0.16588,0.16588 -0.16588,0.16588 0,0 -0.50593,0.008 -0.50593,0.008 0,0 0.29444,0.33176 0.29444,0.33176 0,0 0.29029,0 0.29029,0 0,0 -0.004,1.49292 -0.004,1.49292 0,0 -1.92006,0 -1.92006,0 -0.14515,-0.0747 -0.23638,-0.80452 -0.14515,-0.9704 -0.0373,-0.19906 -0.33176,-0.19076 -0.37738,0 0.12027,0.0829 0.0622,0.87916 -0.12855,0.9704 0,0 -2.08595,0 -2.08595,0 -0.19076,-0.14929 -0.21979,-0.89575 -0.10782,-0.97869 -0.0829,-0.2198 -0.3442,-0.2198 -0.40641,0 0.12856,0.12026 0.0912,0.89575 -0.10367,0.97869 0,0 -2.0818,0 -2.0818,0 -0.17417,-0.0829 -0.21149,-0.88746 -0.0995,-0.9704 -0.0829,-0.23638 -0.36909,-0.19906 -0.40641,0.0124 0.11197,0.0622 0.0995,0.88331 -0.0829,0.95796 0,0 -2.02789,-0.008 -2.02789,-0.008 -0.1949,-0.0954 -0.21979,-0.88745 -0.12026,-0.9621 -0.0249,-0.22809 -0.34005,-0.22809 -0.37738,-0.008 0.0912,0.0829 0.0746,0.89575 -0.12026,0.97039 0,0 -2.42185,0.0166 -2.42185,0.0166 0,0 -0.008,-0.96625 -0.008,-0.96625 0,0 0.4147,-0.4147 0.4147,-0.4147 0,0 -0.4147,0 -0.4147,0 0,0 0,-0.24882 0,-0.24882 0,0 -0.42714,-0.36908 -0.42714,-0.36908 0,0 0,-1.84542 0,-1.84542 0,0 0.26955,-0.008 0.26955,-0.008 0,0 0.43129,-0.53497 0.45202,-0.53497 0.008,0 -0.74646,0 -0.74646,0 0,0 0,-0.24052 0,-0.24052 0,0 -0.2032,-0.15344 -0.2032,-0.15344 0,0 0,-0.36909 0,-0.36909 0,0 -0.51838,0 -0.51838,0 -0.0829,-0.24052 -0.23637,-0.22393 -0.33176,-0.008 0,0 -0.8294,0 -0.8294,0 -0.0249,-0.2032 -0.21149,-0.30688 -0.31102,0.008 0,0 -0.4147,-0.008 -0.4147,-0.008 0,0 -0.0456,-2.9029 -0.0456,-2.9029 0.15344,-0.0747 1.12384,0.84599 1.30631,0.86257 -0.0456,-0.44787 -0.35665,-0.96625 -0.27371,-1.26068 -0.70913,-0.41885 -1.01601,-1.65881 -1.28142,-1.53854 0,0 0.0166,4.84784 0.0166,4.84784 0,0 -0.43129,0.008 -0.43129,0.008 -0.0581,-0.26541 -0.31517,-0.25712 -0.3442,0 0,0 -0.86258,0.008 -0.86258,0.008 -0.0373,-0.26541 -0.29858,-0.25711 -0.3442,0 0,0 -0.4852,0 -0.4852,0 0,0 0.008,0.34006 0.008,0.34006 0,0 -0.20321,0.17832 -0.20321,0.17832 0,0 0,0.21979 0,0.21979 0,0 -0.74646,-0.008 -0.74646,-0.008 0,0 0.46861,0.51423 0.46861,0.51423 0,0 0.30688,0.008 0.30688,0.008 0,0 0.008,1.90762 0.008,1.90762 0,0 -0.38981,0.35249 -0.38981,0.35249 0,0 0,0.24053 0,0.24053 0,0 -0.40226,-0.0124 -0.40226,-0.0124 0,0 0.39396,0.4147 0.39396,0.4147 0,0 0.0249,1.02016 0.0249,1.02016 0,0 -0.49349,-0.20735 -0.49349,-0.20735 0,0 -0.24882,-0.57228 -0.24882,-0.57228 0.0539,-0.34006 -0.0829,-0.72573 -0.39811,-0.92893 -0.35664,0.4147 -0.13685,0.14514 0.029,1.11554 0.0373,0.35664 -0.38567,0.46032 -0.38567,0.46032 0,0 0,0.24052 0,0.24052 0,0 0.26126,0.27371 0.26126,0.27371 0,0 -0.004,0.53496 -0.004,0.53496 0,0 -0.4852,0.004 -0.4852,0.004 0,0 -0.0124,0.23223 -0.0124,0.23223 0,0 0.70914,0.72158 0.70914,0.72158 0,0 0.45617,0.004 0.45617,0.004 0,0 0,0.42714 0,0.42714 0,0 -0.34835,0.23638 -0.34835,0.23638 0,0 0,0.59302 0,0.59302 0,0 0.34835,0.28614 0.34835,0.28614 0,0 0.0539,7.25726 0.0539,7.25726"
           id="path3762"
           inkscape:connector-curvature="0" />
        <path
           style="fill:#b3b3b3;fill-opacity:1;stroke:none"
           d="m 399.87739,824.19171 c 0,0 0.10367,-39.70756 0.10367,-39.70756 0,0 2.28085,-0.10368 2.28085,-0.10368 0,0 -0.0249,-0.72572 -0.0249,-0.72572 0,0 -1.03675,0.0539 -1.03675,0.0539 0,0 0,-3.13928 0,-3.13928 0,0 3.83598,-0.17832 3.83598,-0.17832 0,0 0.12856,-7.23238 0.12856,-7.23238 0,0 0.72572,0 0.7506,0 0.029,0 0.20735,7.23238 0.20735,7.23238 0,0 7.38997,0 7.38997,0 0,0 0.0746,-7.25726 0.0746,-7.25726 0,0 0.77964,0 0.77964,0 0,0 0.15344,7.25726 0.15344,7.25726 0,0 4.147,0.0249 4.147,0.0249 0,0 -0.0249,3.18904 -0.0249,3.18904 0,0 -1.01187,0.0249 -1.01187,0.0249 0,0 0,0.64693 0,0.64693 0,0 1.94494,0 1.94494,0 0,0 0.10368,40.12226 0.10368,40.12226"
           id="path3760"
           inkscape:connector-curvature="0" />
        <path
           style="fill:#b3b3b3;fill-opacity:1;stroke:none"
           d="m 335.46324,827.23118 c 0,0 -0.10367,-3.68254 -0.10367,-3.68254 0,0 -5.59846,0.0539 -5.59846,0.0539 0,0 -1.60489,-54.9478 -1.60489,-54.9478 0,0 0.62205,-0.029 0.62205,-0.029 0,0 -0.029,-2.07351 -0.029,-2.07351 0,0 -0.56814,0 -0.56814,0 0,0 -0.10368,-1.94079 -0.10368,-1.94079 6.32003,-2.40941 5.58187,-9.89061 0.51838,-12.15902 0,0 0.0249,-8.86215 0.0249,-8.86215 0,0 -1.08652,0 -1.08652,0 0,0 0.0249,-5.46989 0.0249,-5.46989 0,0 0.43958,0 0.43958,0 0,0 -0.0249,-1.65881 -0.0249,-1.65881 0,0 -0.4147,0 -0.4147,0 0,0 -0.24468,-11.08079 -0.24468,-11.08079 0,0 0.39811,-0.0124 0.39811,-0.0124 0,0 -0.004,-1.37681 -0.004,-1.37681 0,0 -0.44788,0 -0.44788,0 0,0 -0.21564,-8.21936 -0.21564,-8.21936 0,0 0.43129,-0.0166 0.43129,-0.0166 0,0 -0.0166,-1.08237 -0.0166,-1.08237 0,0 -0.45203,-0.0207 -0.45203,-0.0207 0,0 -0.37737,-15.34391 -0.37737,-15.34391 0,0 -0.54326,0.0207 -0.54326,0.0207 0,0 -0.32347,15.3605 -0.32347,15.3605 0,0 -0.43129,0 -0.43129,0 0,0 0,1.09896 0,1.09896 0,0 0.39397,0 0.39397,0 0,0 -0.16173,8.22351 -0.16173,8.22351 0,0 -0.43129,0 -0.43129,0 0,0 -0.0124,1.38095 -0.0124,1.38095 0,0 0.4147,0 0.4147,0 0,0 -0.20735,11.04347 -0.20735,11.04347 0,0 -0.46447,0.0249 -0.46447,0.0249 0,0 -0.0249,1.63392 -0.0249,1.63392 0,0 0.46447,0.0249 0.46447,0.0249 0,0 0,5.46989 0,5.46989 0,0 -1.14043,0.0249 -1.14043,0.0249 0,0 -0.0249,8.86629 -0.0249,8.86629 -4.95153,2.28085 -5.96339,9.50908 0.51837,12.15487 0,0 -0.10367,1.94494 -0.10367,1.94494 0,0 -0.54326,0 -0.54326,0 0,0 -0.029,2.04448 -0.029,2.04448 0,0 0.51838,0 0.51838,0 0,0 -1.36437,54.94365 -1.36437,54.94365 0,0 -5.13814,-0.0207 -5.13814,-0.0207 0,0 -0.10367,3.68254 -0.10367,3.68254"
           id="path3756"
           inkscape:connector-curvature="0" />
      </g>
      <g
         transform="matrix(0.14276677,0,0,0.14276677,194.88189,755.44858)"
         id="g4433"
         style="overflow:visible;fill:#4d4d4d">
        <g
           style="fill:#4d4d4d"
           id="g4409">
          <g
             style="fill:#4d4d4d"
             id="g4411">
            <path
               style="fill:#4d4d4d"
               inkscape:connector-curvature="0"
               d="m 0,0.233 247.941,0.002 0,15.5 -175.901,216.926 78.591,0 c 13.616,0 25.393,-2.407 35.333,-7.212 9.935,-4.809 18.656,-12.569 26.164,-23.288 7.498,-10.716 13.545,-26.13 18.133,-46.243 l 17.679,-0.695 0,92.992 -247.94,0 0,-15.554 172.335,-213.958 -59.172,0 C 89.316,18.703 70.599,23.974 57.01,34.504 43.416,45.043 34.321,62.995 29.726,88.37 L 0,88.425 0,0.233 Z"
               id="path4413" />
          </g>
          <g
             style="fill:#4d4d4d"
             id="g4415">
            <path
               style="fill:#4d4d4d"
               inkscape:connector-curvature="0"
               d="m 338.388,249.227 c -0.119,-0.637 -0.22,-1.285 -0.305,-1.947 -0.086,-0.661 -0.155,-1.334 -0.208,-2.02 -0.056,-0.685 -0.088,-1.384 -0.111,-2.092 -0.019,-0.712 -0.022,-1.431 -0.015,-2.168 0.015,-0.734 0.042,-1.48 0.089,-2.241 0.044,-0.757 0.104,-1.529 0.183,-2.316 0.077,-0.781 0.174,-1.577 0.281,-2.385 0.107,-0.808 0.233,-1.632 0.378,-2.462 0.141,-0.833 0.303,-1.677 0.478,-2.535 0.174,-0.858 0.367,-1.73 0.569,-2.61 0.212,-0.881 0.435,-1.779 0.676,-2.687 0.24,-0.905 0.496,-1.825 0.77,-2.757 0.271,-0.929 0.559,-1.871 0.867,-2.829 0.303,-0.953 0.626,-1.923 0.964,-2.903 0.336,-0.98 0.695,-1.977 1.062,-2.98 0.37,-1.002 0.755,-2.022 1.16,-3.05 -1.441,-0.011 -2.863,-0.035 -4.269,-0.058 -1.407,-0.031 -2.789,-0.073 -4.155,-0.119 -1.367,-0.047 -2.716,-0.108 -4.047,-0.175 -1.326,-0.067 -2.637,-0.144 -3.931,-0.232 -1.288,-0.087 -2.559,-0.186 -3.814,-0.29 -1.252,-0.107 -2.485,-0.223 -3.701,-0.351 -1.216,-0.124 -2.412,-0.261 -3.586,-0.403 -1.178,-0.142 -2.338,-0.299 -3.472,-0.461 -1.141,-0.163 -2.259,-0.338 -3.359,-0.52 -1.104,-0.181 -2.187,-0.378 -3.249,-0.577 -1.063,-0.202 -2.107,-0.416 -3.13,-0.635 -1.027,-0.223 -2.035,-0.455 -3.023,-0.694 -0.986,-0.244 -1.951,-0.489 -2.9,-0.75 -0.953,-0.263 -1.882,-0.531 -2.794,-0.81 -0.911,-0.281 -1.804,-0.566 -2.674,-0.865 -0.874,-0.299 -1.73,-0.604 -2.564,-0.923 -0.836,-0.319 -1.666,-0.65 -2.496,-0.997 -0.825,-0.341 -1.648,-0.697 -2.475,-1.068 -0.821,-0.369 -1.642,-0.75 -2.457,-1.146 -0.813,-0.394 -1.622,-0.801 -2.433,-1.223 -0.809,-0.42 -1.611,-0.854 -2.413,-1.298 -0.803,-0.449 -1.601,-0.903 -2.393,-1.374 -0.792,-0.475 -1.586,-0.958 -2.37,-1.451 -0.789,-0.499 -1.575,-1.004 -2.356,-1.528 -0.781,-0.522 -1.555,-1.059 -2.331,-1.604 -0.773,-0.549 -1.544,-1.11 -2.31,-1.681 -0.769,-0.575 -1.535,-1.161 -2.295,-1.759 -0.759,-0.599 -1.515,-1.21 -2.267,-1.834 -0.755,-0.624 -1.504,-1.261 -2.248,-1.909 -0.748,-0.648 -1.489,-1.312 -2.234,-1.989 -0.737,-0.675 -1.475,-1.361 -2.204,-2.064 -0.733,-0.699 -1.464,-1.411 -2.193,-2.139 -1.001,-1.005 -1.979,-2.009 -2.926,-3.013 -0.945,-1.007 -1.867,-2.011 -2.758,-3.019 -0.893,-1.009 -1.756,-2.015 -2.588,-3.024 -0.834,-1.009 -1.641,-2.019 -2.42,-3.026 -0.777,-1.007 -1.526,-2.019 -2.249,-3.031 -0.723,-1.009 -1.415,-2.022 -2.079,-3.033 -0.666,-1.013 -1.301,-2.024 -1.908,-3.037 -0.609,-1.013 -1.188,-2.029 -1.741,-3.042 -0.553,-1.015 -1.074,-2.029 -1.569,-3.046 -0.495,-1.017 -0.962,-2.031 -1.401,-3.051 -0.438,-1.015 -0.849,-2.033 -1.232,-3.053 -0.38,-1.019 -0.733,-2.037 -1.059,-3.055 -0.326,-1.024 -0.623,-2.042 -0.892,-3.064 -0.269,-1.018 -0.509,-2.04 -0.723,-3.064 -0.213,-1.022 -0.396,-2.044 -0.553,-3.066 -0.155,-1.026 -0.283,-2.05 -0.383,-3.072 -0.1,-1.026 -0.175,-2.042 -0.225,-3.048 -0.05,-1.005 -0.074,-2.002 -0.072,-2.987 0,-0.986 0.026,-1.964 0.08,-2.929 0.053,-0.966 0.129,-1.924 0.232,-2.869 0.102,-0.947 0.23,-1.885 0.384,-2.811 0.154,-0.929 0.334,-1.845 0.538,-2.752 0.207,-0.909 0.435,-1.809 0.691,-2.694 0.255,-0.889 0.536,-1.771 0.843,-2.635 0.306,-0.871 0.636,-1.729 0.994,-2.581 0.357,-0.847 0.739,-1.688 1.148,-2.515 0.407,-0.831 0.841,-1.65 1.3,-2.46 0.458,-0.812 0.942,-1.612 1.452,-2.4 0.508,-0.792 1.044,-1.572 1.604,-2.344 0.561,-0.77 1.145,-1.533 1.756,-2.285 0.61,-0.75 1.247,-1.491 1.908,-2.221 0.661,-0.733 1.347,-1.457 2.061,-2.17 1.073,-1.073 2.167,-2.103 3.282,-3.086 1.111,-0.984 2.245,-1.92 3.393,-2.809 1.151,-0.896 2.323,-1.741 3.513,-2.542 1.188,-0.798 2.396,-1.553 3.627,-2.263 1.227,-0.708 2.471,-1.371 3.737,-1.986 1.267,-0.619 2.552,-1.189 3.856,-1.715 1.303,-0.524 2.626,-1.004 3.972,-1.438 1.341,-0.433 2.704,-0.821 4.082,-1.163 1.382,-0.343 2.781,-0.639 4.201,-0.889 1.418,-0.252 2.856,-0.457 4.311,-0.615 1.461,-0.159 2.938,-0.27 4.432,-0.339 1.496,-0.066 3.012,-0.086 4.546,-0.064 1.533,0.025 3.085,0.093 4.656,0.21 1.574,0.117 3.168,0.279 4.775,0.485 1.612,0.21 3.241,0.462 4.89,0.761 1.648,0.301 3.316,0.646 5.001,1.037 1.345,0.317 2.752,0.703 4.219,1.146 1.468,0.443 3.001,0.949 4.59,1.517 1.594,0.569 3.249,1.199 4.965,1.889 1.719,0.694 3.496,1.447 5.338,2.265 1.842,0.817 3.745,1.693 5.709,2.633 1.964,0.942 3.993,1.946 6.083,3.008 2.089,1.068 4.237,2.194 6.453,3.38 2.212,1.192 4.485,2.44 6.827,3.754 2.338,1.312 4.734,2.686 7.194,4.125 2.464,1.436 4.986,2.935 7.572,4.497 2.59,1.561 5.234,3.183 7.946,4.868 2.708,1.686 5.479,3.435 8.312,5.241 2.835,1.809 5.73,3.679 8.688,5.614 2.96,1.931 5.979,3.928 9.062,5.984 3.082,2.057 6.227,4.178 9.436,6.358 3.204,2.183 6.472,4.424 9.802,6.731 l 1.437,-1.44 1.441,-1.442 1.438,-1.437 1.437,-1.441 1.441,-1.442 1.44,-1.437 1.438,-1.44 1.442,-1.438 1.433,-1.442 1.441,-1.44 1.437,-1.438 1.441,-1.442 1.438,-1.436 1.439,-1.442 1.438,-1.44 1.44,-1.44 c 0.567,-0.569 1.118,-1.141 1.649,-1.721 0.533,-0.579 1.044,-1.163 1.54,-1.752 0.493,-0.589 0.971,-1.186 1.428,-1.785 0.461,-0.599 0.899,-1.205 1.321,-1.814 0.423,-0.609 0.826,-1.225 1.215,-1.847 0.382,-0.623 0.752,-1.249 1.101,-1.878 0.345,-0.631 0.678,-1.267 0.985,-1.913 0.314,-0.639 0.608,-1.287 0.882,-1.938 0.277,-0.653 0.537,-1.31 0.771,-1.973 0.24,-0.663 0.463,-1.331 0.662,-2.004 0.204,-0.675 0.387,-1.353 0.553,-2.037 0.166,-0.683 0.314,-1.373 0.44,-2.064 0.129,-0.697 0.237,-1.398 0.334,-2.101 0.089,-0.704 0.162,-1.414 0.219,-2.128 0.055,-0.717 0.093,-1.436 0.111,-2.163 0.018,-0.727 0.019,-1.455 0.004,-2.19 -0.019,-0.737 -0.057,-1.469 -0.111,-2.199 -0.061,-0.728 -0.13,-1.457 -0.23,-2.179 -0.093,-0.721 -0.208,-1.44 -0.341,-2.159 -0.134,-0.716 -0.285,-1.431 -0.455,-2.137 -0.171,-0.712 -0.362,-1.42 -0.574,-2.123 -0.212,-0.703 -0.44,-1.405 -0.688,-2.101 -0.248,-0.697 -0.517,-1.389 -0.801,-2.081 -0.289,-0.692 -0.594,-1.38 -0.918,-2.064 -0.327,-0.683 -0.672,-1.365 -1.035,-2.042 -0.363,-0.679 -0.744,-1.353 -1.147,-2.022 -0.4,-0.672 -0.823,-1.34 -1.264,-2.006 -0.441,-0.664 -0.899,-1.325 -1.378,-1.986 -0.481,-0.659 -0.978,-1.312 -1.496,-1.963 -0.515,-0.653 -1.053,-1.303 -1.607,-1.947 -0.557,-0.645 -1.134,-1.289 -1.727,-1.929 -0.594,-0.639 -1.209,-1.274 -1.842,-1.907 -0.481,-0.483 -0.971,-0.958 -1.46,-1.422 -0.489,-0.461 -0.981,-0.918 -1.475,-1.357 -0.496,-0.445 -0.997,-0.878 -1.497,-1.303 -0.5,-0.422 -1.007,-0.836 -1.515,-1.239 -0.507,-0.403 -1.019,-0.796 -1.529,-1.179 -0.515,-0.383 -1.029,-0.755 -1.549,-1.119 -0.519,-0.361 -1.041,-0.715 -1.566,-1.059 -0.521,-0.345 -1.053,-0.675 -1.586,-0.998 -0.529,-0.321 -1.061,-0.635 -1.597,-0.938 -0.537,-0.303 -1.079,-0.595 -1.619,-0.876 -0.54,-0.283 -1.086,-0.555 -1.637,-0.818 -0.544,-0.263 -1.097,-0.515 -1.651,-0.755 -0.557,-0.241 -1.108,-0.475 -1.672,-0.695 -0.559,-0.223 -1.119,-0.433 -1.685,-0.635 -0.564,-0.203 -1.136,-0.393 -1.705,-0.579 -0.571,-0.181 -1.147,-0.35 -1.723,-0.513 -0.385,-0.113 -0.763,-0.215 -1.133,-0.312 -0.375,-0.101 -0.734,-0.19 -1.09,-0.27 -0.353,-0.083 -0.701,-0.155 -1.04,-0.221 -0.342,-0.065 -0.668,-0.124 -0.989,-0.175 -0.327,-0.049 -0.643,-0.091 -0.949,-0.125 -0.303,-0.035 -0.607,-0.062 -0.896,-0.081 -0.294,-0.02 -0.578,-0.031 -0.855,-0.037 -0.277,-0.003 -0.544,0 -0.805,0.013 -0.263,0.011 -0.515,0.031 -0.76,0.058 -0.244,0.025 -0.481,0.064 -0.71,0.104 -0.229,0.044 -0.452,0.095 -0.668,0.155 -0.215,0.059 -0.418,0.122 -0.618,0.197 -0.195,0.073 -0.386,0.155 -0.566,0.244 -0.182,0.088 -0.359,0.185 -0.527,0.292 -0.166,0.104 -0.324,0.217 -0.476,0.338 -0.153,0.119 -0.294,0.248 -0.431,0.383 -0.073,0.073 -0.145,0.149 -0.216,0.232 -0.073,0.08 -0.145,0.169 -0.21,0.261 -0.071,0.091 -0.141,0.188 -0.208,0.29 -0.065,0.104 -0.137,0.212 -0.204,0.325 -0.066,0.113 -0.134,0.23 -0.199,0.352 -0.063,0.124 -0.13,0.25 -0.193,0.383 -0.065,0.133 -0.13,0.27 -0.191,0.414 -0.064,0.143 -0.126,0.289 -0.19,0.445 -0.058,0.153 -0.122,0.311 -0.181,0.473 -0.063,0.166 -0.118,0.334 -0.183,0.509 -0.058,0.173 -0.114,0.351 -0.173,0.537 -0.061,0.183 -0.119,0.373 -0.176,0.566 -0.055,0.195 -0.109,0.394 -0.166,0.6 -0.055,0.203 -0.111,0.413 -0.166,0.626 -0.053,0.215 -0.107,0.438 -0.16,0.663 -0.051,0.223 -0.103,0.455 -0.155,0.69 -0.126,0.519 -0.259,1.033 -0.396,1.541 -0.141,0.505 -0.281,1.005 -0.435,1.5 -0.148,0.495 -0.307,0.984 -0.466,1.464 -0.164,0.481 -0.334,0.956 -0.504,1.425 -0.171,0.469 -0.352,0.929 -0.534,1.385 -0.188,0.458 -0.378,0.907 -0.573,1.351 -0.201,0.445 -0.403,0.877 -0.611,1.31 -0.212,0.431 -0.427,0.854 -0.645,1.272 -0.219,0.418 -0.449,0.829 -0.679,1.234 -0.233,0.407 -0.471,0.805 -0.719,1.195 -0.241,0.394 -0.493,0.781 -0.749,1.161 -0.255,0.378 -0.518,0.752 -0.788,1.117 -0.267,0.369 -0.54,0.728 -0.823,1.08 -0.281,0.354 -0.562,0.703 -0.855,1.044 -0.288,0.341 -0.588,0.674 -0.893,1.004 -0.299,0.329 -0.611,0.648 -0.926,0.965 -0.403,0.4 -0.812,0.791 -1.219,1.167 -0.407,0.374 -0.823,0.739 -1.237,1.087 -0.414,0.351 -0.838,0.687 -1.256,1.008 -0.425,0.327 -0.849,0.637 -1.277,0.933 -0.427,0.297 -0.859,0.582 -1.298,0.854 -0.433,0.272 -0.874,0.529 -1.313,0.774 -0.445,0.244 -0.895,0.476 -1.342,0.697 -0.449,0.219 -0.903,0.425 -1.355,0.617 -0.457,0.193 -0.915,0.374 -1.375,0.542 -0.467,0.166 -0.934,0.317 -1.403,0.461 -0.467,0.141 -0.941,0.267 -1.416,0.382 -0.479,0.115 -0.96,0.219 -1.439,0.306 -0.482,0.091 -0.968,0.165 -1.461,0.229 -0.488,0.062 -0.981,0.115 -1.475,0.149 -0.496,0.035 -1,0.061 -1.503,0.071 -0.504,0.009 -1.008,0.007 -1.519,-0.007 -0.514,-0.015 -1.021,-0.044 -1.528,-0.084 -0.503,-0.044 -1.007,-0.099 -1.511,-0.17 -0.496,-0.065 -1,-0.149 -1.493,-0.244 -0.5,-0.093 -0.992,-0.203 -1.485,-0.323 -0.492,-0.122 -0.985,-0.259 -1.475,-0.409 -0.489,-0.148 -0.971,-0.307 -1.454,-0.48 -0.485,-0.179 -0.964,-0.365 -1.446,-0.566 -0.478,-0.204 -0.956,-0.416 -1.434,-0.646 -0.47,-0.226 -0.944,-0.467 -1.415,-0.723 -0.471,-0.256 -0.941,-0.52 -1.403,-0.805 -0.467,-0.279 -0.935,-0.573 -1.395,-0.882 -0.461,-0.308 -0.921,-0.627 -1.381,-0.96 -0.455,-0.335 -0.911,-0.683 -1.363,-1.044 -0.455,-0.359 -0.903,-0.733 -1.356,-1.121 -0.447,-0.387 -0.896,-0.787 -1.34,-1.199 -0.441,-0.416 -0.887,-0.841 -1.326,-1.283 -0.468,-0.465 -0.924,-0.938 -1.363,-1.413 -0.442,-0.475 -0.867,-0.951 -1.278,-1.431 -0.412,-0.477 -0.812,-0.958 -1.196,-1.444 -0.382,-0.485 -0.752,-0.973 -1.108,-1.462 -0.359,-0.491 -0.701,-0.983 -1.025,-1.476 -0.33,-0.497 -0.641,-0.993 -0.941,-1.493 -0.3,-0.5 -0.584,-1.003 -0.856,-1.507 -0.273,-0.507 -0.529,-1.015 -0.771,-1.524 -0.244,-0.509 -0.475,-1.026 -0.688,-1.541 -0.212,-0.518 -0.412,-1.037 -0.597,-1.555 -0.19,-0.524 -0.363,-1.046 -0.519,-1.573 -0.16,-0.524 -0.305,-1.053 -0.431,-1.586 -0.13,-0.531 -0.248,-1.064 -0.349,-1.603 -0.099,-0.537 -0.188,-1.073 -0.263,-1.619 -0.069,-0.542 -0.13,-1.084 -0.174,-1.633 -0.045,-0.546 -0.074,-1.097 -0.093,-1.648 -0.015,-0.553 -0.015,-1.101 -0.004,-1.645 0.012,-0.544 0.037,-1.084 0.079,-1.619 0.036,-0.537 0.087,-1.07 0.155,-1.597 0.065,-0.529 0.144,-1.053 0.24,-1.571 0.094,-0.518 0.199,-1.035 0.317,-1.546 0.123,-0.511 0.256,-1.02 0.405,-1.524 0.151,-0.501 0.311,-1.002 0.485,-1.498 0.178,-0.493 0.365,-0.986 0.566,-1.471 0.208,-0.485 0.423,-0.969 0.651,-1.447 0.233,-0.48 0.475,-0.956 0.733,-1.427 0.256,-0.469 0.531,-0.936 0.816,-1.398 0.284,-0.463 0.585,-0.919 0.896,-1.376 0.309,-0.456 0.637,-0.905 0.979,-1.353 0.338,-0.447 0.691,-0.889 1.061,-1.327 0.364,-0.44 0.748,-0.874 1.144,-1.303 0.393,-0.429 0.8,-0.856 1.224,-1.278 0.691,-0.693 1.403,-1.358 2.133,-1.995 0.733,-0.637 1.479,-1.247 2.245,-1.823 0.763,-0.581 1.548,-1.128 2.349,-1.652 0.803,-0.523 1.626,-1.018 2.464,-1.483 0.84,-0.464 1.695,-0.902 2.569,-1.311 l 49.604,0.245 c 1.548,0.483 3.094,0.998 4.634,1.549 1.537,0.555 3.068,1.141 4.594,1.761 1.525,0.622 3.046,1.277 4.558,1.969 1.515,0.69 3.019,1.416 4.519,2.175 1.5,0.763 2.993,1.557 4.482,2.385 1.485,0.831 2.967,1.697 4.441,2.595 1.474,0.898 2.942,1.834 4.406,2.803 1.462,0.971 2.918,1.973 4.367,3.012 1.447,1.037 2.893,2.113 4.331,3.219 1.439,1.108 2.867,2.252 4.288,3.429 1.428,1.177 2.846,2.391 4.253,3.637 1.412,1.247 2.815,2.529 4.216,3.847 1.401,1.314 2.794,2.667 4.179,4.052 1.044,1.047 2.071,2.097 3.083,3.146 1.011,1.051 2.004,2.104 2.979,3.159 0.971,1.061 1.929,2.119 2.867,3.181 0.945,1.062 1.863,2.128 2.771,3.196 0.901,1.069 1.79,2.141 2.657,3.214 0.87,1.075 1.723,2.15 2.559,3.232 0.834,1.077 1.646,2.163 2.449,3.245 0.796,1.087 1.578,2.177 2.345,3.267 0.763,1.091 1.508,2.187 2.237,3.28 0.73,1.099 1.437,2.199 2.13,3.303 0.697,1.103 1.371,2.208 2.029,3.316 0.661,1.11 1.306,2.221 1.928,3.334 0.626,1.115 1.23,2.234 1.819,3.353 0.588,1.121 1.159,2.245 1.71,3.371 0.554,1.126 1.094,2.255 1.608,3.387 l -0.166,54.061 c -0.367,0.814 -0.382,0.887 -0.781,1.694 -0.405,0.808 -0.823,1.609 -1.26,2.411 -0.441,0.803 -0.897,1.601 -1.363,2.398 -0.475,0.796 -0.967,1.59 -1.475,2.382 -0.507,0.789 -1.031,1.579 -1.575,2.363 -0.543,0.787 -1.104,1.57 -1.683,2.349 -0.576,0.781 -1.173,1.559 -1.781,2.334 -0.614,0.772 -1.244,1.546 -1.893,2.316 -0.647,0.771 -1.315,1.537 -1.996,2.301 -0.683,0.763 -1.382,1.524 -2.101,2.283 -0.719,0.757 -1.456,1.511 -2.205,2.269 l -5.064,5.063 -5.067,5.068 -5.063,5.064 -5.061,5.066 -5.068,5.062 -5.064,5.062 -5.059,5.064 -5.064,5.066 -5.064,5.066 -5.068,5.064 -5.061,5.064 -5.062,5.064 -5.064,5.066 -5.064,5.064 -5.064,5.068 -5.063,5.061 c -0.383,0.383 -0.761,0.765 -1.124,1.144 -0.357,0.381 -0.71,0.758 -1.047,1.131 -0.342,0.377 -0.67,0.746 -0.986,1.121 -0.317,0.371 -0.626,0.736 -0.918,1.102 -0.293,0.365 -0.578,0.729 -0.852,1.094 -0.271,0.363 -0.533,0.723 -0.781,1.08 -0.248,0.357 -0.489,0.713 -0.716,1.066 -0.229,0.35 -0.449,0.705 -0.651,1.051 -0.204,0.354 -0.401,0.693 -0.582,1.039 -0.187,0.346 -0.359,0.688 -0.515,1.029 -0.164,0.34 -0.312,0.678 -0.453,1.012 -0.137,0.336 -0.263,0.668 -0.381,1.002 -0.115,0.328 -0.223,0.656 -0.316,0.984 -0.091,0.326 -0.177,0.654 -0.248,0.977 -0.069,0.32 -0.129,0.641 -0.181,0.961 -0.051,0.314 -0.089,0.635 -0.114,0.945 m 17.956,-115.148 c -3.457,-2.63 -6.82,-5.108 -10.083,-7.437 -3.27,-2.327 -6.436,-4.502 -9.511,-6.528 -3.075,-2.026 -6.061,-3.898 -8.946,-5.621 -2.886,-1.723 -5.676,-3.296 -8.369,-4.716 -2.696,-1.422 -5.297,-2.688 -7.801,-3.809 -2.513,-1.117 -4.92,-2.084 -7.236,-2.9 -2.314,-0.815 -4.537,-1.48 -6.659,-1.995 -2.126,-0.511 -4.157,-0.874 -6.091,-1.086 -1.938,-0.213 -3.841,-0.323 -5.712,-0.33 -1.867,-0.009 -3.705,0.085 -5.514,0.279 -1.803,0.195 -3.575,0.491 -5.312,0.889 -1.741,0.398 -3.443,0.896 -5.119,1.497 -1.67,0.6 -3.312,1.299 -4.919,2.104 -1.607,0.803 -3.183,1.707 -4.723,2.714 -1.542,1.006 -3.05,2.11 -4.528,3.318 -1.475,1.208 -2.918,2.519 -4.327,3.929 -1,0.995 -1.936,1.995 -2.811,2.997 -0.879,1.003 -1.697,2.007 -2.449,3.013 -0.755,1.009 -1.452,2.02 -2.086,3.033 -0.637,1.011 -1.212,2.025 -1.727,3.044 -0.511,1.019 -0.963,2.042 -1.355,3.064 -0.393,1.022 -0.727,2.047 -0.997,3.077 -0.27,1.028 -0.485,2.057 -0.633,3.095 -0.147,1.033 -0.241,2.068 -0.271,3.108 -0.029,1.038 0,2.069 0.086,3.097 0.088,1.022 0.237,2.037 0.44,3.044 0.204,1.007 0.467,2.007 0.794,2.997 0.32,0.993 0.702,1.975 1.144,2.949 0.437,0.975 0.937,1.942 1.497,2.9 0.559,0.958 1.173,1.909 1.849,2.851 0.673,0.943 1.407,1.879 2.199,2.803 0.798,0.925 1.646,1.845 2.557,2.756 1.407,1.409 2.849,2.719 4.323,3.942 1.474,1.223 2.982,2.349 4.522,3.385 1.542,1.035 3.115,1.979 4.724,2.827 1.607,0.851 3.25,1.606 4.924,2.269 1.674,0.664 3.382,1.235 5.123,1.714 1.744,0.478 3.517,0.859 5.327,1.151 1.809,0.294 3.65,0.493 5.524,0.597 1.878,0.108 3.785,0.119 5.724,0.04 1.943,-0.08 3.874,-0.268 5.796,-0.555 1.92,-0.288 3.827,-0.684 5.724,-1.183 1.894,-0.496 3.779,-1.101 5.653,-1.807 1.867,-0.708 3.734,-1.519 5.579,-2.437 1.849,-0.914 3.684,-1.937 5.508,-3.062 1.827,-1.124 3.64,-2.354 5.439,-3.69 1.801,-1.334 3.59,-2.772 5.363,-4.318 1.779,-1.542 3.542,-3.192 5.295,-4.944 l 2.756,-2.758 2.759,-2.757 2.758,-2.758 2.76,-2.763 2.759,-2.757 2.756,-2.758 2.756,-2.756 2.761,-2.758 z"
               id="path4417" />
          </g>
          <g
             style="fill:#4d4d4d"
             id="g4419">
            <path
               style="fill:#4d4d4d"
               inkscape:connector-curvature="0"
               d="m 0,247.405 154.962,0.004 c 27.544,0 57.38,9.454 74.162,22.524 16.776,13.072 25.167,29.078 25.167,48.016 0,14.4 -4.85,27.002 -14.537,37.803 -9.686,10.795 -22.687,18.635 -39.001,23.512 -16.312,4.873 -32.466,7.307 -48.46,7.307 l -51.376,0 0,80.066 c 0,4.436 1.433,7.867 4.311,10.303 2.877,2.441 6.562,3.65 11.062,3.65 l 31.878,0 0,15.613 -148.168,0 0,-15.613 24.879,0 c 5.525,0 9.699,-1.209 12.526,-3.65 2.828,-2.436 4.243,-5.867 4.243,-10.289 l 0,-187.098 c 0,-4.203 -1.446,-7.523 -4.338,-9.967 -2.89,-2.43 -6.406,-3.648 -10.548,-3.648 l -26.762,0 0,-18.533 z m 100.916,123.554 34.325,0 c 12.002,0 22.666,-2.252 31.981,-6.758 9.317,-4.508 15.943,-9.979 19.884,-16.406 3.943,-6.432 5.913,-16.842 5.913,-31.242 0,-19.779 -6.069,-33.744 -18.193,-41.883 -8.886,-5.818 -24.017,-8.732 -45.397,-8.732 -12.382,0 -20.229,0.908 -23.544,2.719 -3.319,1.816 -4.969,4.92 -4.969,9.314 l 0,92.988 z"
               id="path4421" />
          </g>
          <g
             style="fill:#4d4d4d"
             id="g4423">
            <path
               style="fill:#4d4d4d"
               inkscape:connector-curvature="0"
               d="m 247.941,248.215 247.94,0 0.496,84.525 -12.721,0 c -3.071,-26.016 -10.14,-44.014 -21.194,-53.992 -11.062,-9.979 -28.1,-14.969 -51.115,-14.969 l -41.998,0 c -6.143,0 -10.617,1.104 -13.428,3.314 -2.816,2.209 -4.22,5.354 -4.22,9.443 l 0,82.02 15.24,0 c 30.351,0 47.877,-15.674 52.574,-47.035 l 16.748,0 0,113.166 -16.748,0 c -0.511,-12.166 -2.794,-21.764 -6.856,-28.795 -4.064,-7.023 -9.688,-12.523 -16.863,-16.508 -7.173,-3.979 -15.46,-5.973 -24.857,-5.973 l -19.237,0 0,89.111 c 0,4.74 1.471,8.217 4.407,10.416 4.212,3.199 9.188,4.799 14.938,4.799 l 26.821,0 0.173,18.465 -150.1,0 0,-18.465 24.99,0 c 5.846,0 10.366,-1.35 13.544,-4.053 3.179,-2.705 4.769,-6.096 4.769,-10.176 l 0,-186.988 c 0,-4.742 -1.557,-8.047 -4.672,-9.926 -3.115,-1.877 -9.509,-2.814 -19.174,-2.814 l -19.457,0 0,-15.565 z"
               id="path4425" />
          </g>
        </g>
      </g>
      <path
         sodipodi:nodetypes="ccccccccccccccc"
         inkscape:connector-curvature="0"
         id="rathaus"
         d="m 38.976378,826.23899 182.167832,-0.26414 39.39654,0 7.20749,0.62205 36.37337,0.0207 27.03256,-0.32677 17.95859,-1.12475 18.49015,0.57538 20.52625,-3.1099 31.76484,0.19702 0.003,-1.82683 1.75654,0.002 0,231.35875 -382.677162,-6e-4 z"
         style="fill:#4d4d4d;fill-opacity:1;stroke:none" />
    </g>
    <flowRoot
       xml:space="preserve"
       id="flowRoot4935"
       style="font-style:normal;font-variant:normal;font-weight:normal;font-stretch:normal;font-size:15px;line-height:125%;font-family:Lato;-inkscape-font-specification:'Lato, Normal';text-align:end;letter-spacing:0px;word-spacing:0px;writing-mode:lr-tb;text-anchor:end;fill:#000000;fill-opacity:1;stroke:none;stroke-width:1px;stroke-linecap:butt;stroke-linejoin:miter;stroke-opacity:1"
       transform="translate(41.278624,337.83123)"><flowRegion
         id="flowRegion4937"><rect
           id="rect4939"
           width="278.5"
           height="33.5"
           x="61.5"
           y="184.76379" /></flowRegion><flowPara
         id="flowPara4941"
         style="font-style:normal;font-variant:normal;font-weight:bold;font-stretch:normal;font-family:'Times New Roman';-inkscape-font-specification:'Times New Roman, Bold';text-align:start;text-anchor:start;fill:#ffffff;font-size:30px;writing-mode:lr;line-height:125%">Webdesign</flowPara></flowRoot>    <flowRoot
       transform="matrix(5.9856536,0,0,5.9856536,-266.71956,-521.33643)"
       style="font-style:normal;font-variant:normal;font-weight:normal;font-stretch:normal;font-size:15px;line-height:125%;font-family:Lato;-inkscape-font-specification:'Lato, Normal';text-align:end;letter-spacing:0px;word-spacing:0px;writing-mode:lr-tb;text-anchor:end;fill:#000000;fill-opacity:1;stroke:none;stroke-width:1px;stroke-linecap:butt;stroke-linejoin:miter;stroke-opacity:1"
       id="flowRoot4985"
       xml:space="preserve"><flowRegion
         id="flowRegion4987"><rect
           y="184.76379"
           x="61.5"
           height="70.121414"
           width="141.22876"
           id="rect4989" /></flowRegion><flowPara
         style="font-style:normal;font-variant:normal;font-weight:bold;font-stretch:normal;font-size:2.50599194px;line-height:125%;font-family:'Times New Roman';-inkscape-font-specification:'Times New Roman, Bold';text-align:start;writing-mode:lr-tb;text-anchor:start;fill:#ffffff"
         id="flowPara4991">Lorem ipsum dolor sit amet, id solum appetere nam. Dicunt signiferumque qui ei, ei fugit dolor fastidii vim, eu sit odio diceret postulant. Ex ius porro evertitur dissentiunt. Eam ridens deseruisse at, ea eam graece delenit utroque. Debitis blandit sea cu, te meis suscipit sed, mea ne vidit primis. Ne has adhuc solet, recusabo reformidans no nec.</flowPara><flowPara
         style="font-style:normal;font-variant:normal;font-weight:bold;font-stretch:normal;font-size:2.50599194px;line-height:125%;font-family:'Times New Roman';-inkscape-font-specification:'Times New Roman, Bold';text-align:start;writing-mode:lr-tb;text-anchor:start;fill:#ffffff"
         id="flowPara4993"></flowPara><flowPara
         style="font-style:normal;font-variant:normal;font-weight:bold;font-stretch:normal;font-size:2.50599194px;line-height:125%;font-family:'Times New Roman';-inkscape-font-specification:'Times New Roman, Bold';text-align:start;writing-mode:lr-tb;text-anchor:start;fill:#ffffff"
         id="flowPara4995">Sea iisque scaevola percipitur ad. Et per munere regione. In quo tale corpora, eu inani quodsi regione pri. Dicat eruditi denique cu eos, eos impetus albucius epicurei cu. Id eum mutat sanctus conclusionemque, mei ea dolorum theophrastus.</flowPara><flowPara
         style="font-style:normal;font-variant:normal;font-weight:bold;font-stretch:normal;font-size:2.50599194px;line-height:125%;font-family:'Times New Roman';-inkscape-font-specification:'Times New Roman, Bold';text-align:start;writing-mode:lr-tb;text-anchor:start;fill:#ffffff"
         id="flowPara4997"></flowPara><flowPara
         style="font-style:normal;font-variant:normal;font-weight:bold;font-stretch:normal;font-size:2.50599194px;line-height:125%;font-family:'Times New Roman';-inkscape-font-specification:'Times New Roman, Bold';text-align:start;writing-mode:lr-tb;text-anchor:start;fill:#ffffff"
         id="flowPara4999">Ex eius partiendo vel, novum salutandi no nec, soluta quaerendum est et. Ullum integre qui ei. Et nemore insolens mandamus his, ea sea vocent oportere. Mei augue ullamcorper cu, error sensibus vix ex. Id vivendum explicari sea, quas autem minim pri ex.</flowPara><flowPara
         style="font-style:normal;font-variant:normal;font-weight:bold;font-stretch:normal;font-size:2.50599194px;line-height:125%;font-family:'Times New Roman';-inkscape-font-specification:'Times New Roman, Bold';text-align:start;writing-mode:lr-tb;text-anchor:start;fill:#ffffff"
         id="flowPara5001"></flowPara><flowPara
         style="font-style:normal;font-variant:normal;font-weight:bold;font-stretch:normal;font-size:2.50599194px;line-height:125%;font-family:'Times New Roman';-inkscape-font-specification:'Times New Roman, Bold';text-align:start;writing-mode:lr-tb;text-anchor:start;fill:#ffffff"
         id="flowPara5003">Offendit repudiandae id duo, cum ne sint deterruisset. Per et alii libris, sit tritani posidonium id. Ea his purto gloriatur, indoctum praesent mel ad. Nam iuvaret quaestio explicari at, ex qui labores menandri, legere aperiri pertinax est an. Vel in discere tacimates temporibus, et qui facer nostrud.</flowPara><flowPara
         style="font-style:normal;font-variant:normal;font-weight:bold;font-stretch:normal;font-size:2.50599194px;line-height:125%;font-family:'Times New Roman';-inkscape-font-specification:'Times New Roman, Bold';text-align:start;writing-mode:lr-tb;text-anchor:start;fill:#ffffff"
         id="flowPara5005"></flowPara><flowPara
         style="font-style:normal;font-variant:normal;font-weight:bold;font-stretch:normal;font-size:2.50599194px;line-height:125%;font-family:'Times New Roman';-inkscape-font-specification:'Times New Roman, Bold';text-align:start;writing-mode:lr-tb;text-anchor:start;fill:#ffffff"
         id="flowPara5007">Detracto accusata concludaturque ne pri, facilis intellegebat nam te, in dicunt officiis vix. Duo ei atqui dolorem probatus. Eum agam sale fierent ei, nec at causae iuvaret vulputate. Et quidam vivendo partiendo cum. Cum erant doming perpetua te, ad vero dolorem salutandi quo.</flowPara></flowRoot>  </g>
</svg>
